<svg width="188" height="40" viewBox="0 0 188 40" fill="none" xmlns="http://www.w3.org/2000/svg">
<g clip-path="url(#clip0_963_3)">
<path d="M83.6001 39.0999C83.5001 39.0999 83.4001 39.0999 83.3001 39.0999C83.0001 38.8999 82.9001 38.5999 83.1001 38.2999L104.9 0.59995C105.1 0.29995 105.4 0.19995 105.7 0.39995C106 0.59995 106.1 0.89995 105.9 1.19995L84.1001 38.9C84.0001 39.1 83.8001 39.2 83.6001 39.2" fill="#3B1C13"/>
<path d="M10.8653 13.7354V27.2646C10.8653 28.7757 10.4116 29.9431 9.50896 30.7669C8.60152 31.5906 7.24992 32 5.44938 32C3.64884 32 2.29247 31.5906 1.37548 30.7669C0.458493 29.9431 0 28.7757 0 27.2646V13.7354C0 12.2243 0.453717 11.0569 1.35638 10.2331C2.26381 9.40936 3.61541 9 5.41595 9C7.21649 9 8.57286 9.40936 9.48985 10.2331C10.4068 11.0569 10.8653 12.2243 10.8653 13.7354ZM8.63018 27.2646V13.7354C8.63018 11.9312 7.56514 11.0316 5.43505 11.0316C3.30497 11.0316 2.23993 11.9312 2.23993 13.7354V27.2646C2.23993 29.0688 3.30497 29.9684 5.43505 29.9684C7.56514 29.9684 8.63018 29.0688 8.63018 27.2646ZM26.946 27.2646C26.946 30.4232 25.1455 32 21.5444 32C17.9433 32 16.1428 30.4232 16.1428 27.2646V24.3889H18.3779V27.401C18.3779 28.2147 18.6454 28.8464 19.1755 29.2962C19.7056 29.746 20.4985 29.9734 21.5396 29.9734C22.5856 29.9734 23.3736 29.746 23.9037 29.2962C24.4339 28.8464 24.7013 28.2298 24.7013 27.4516C24.7013 26.6733 24.6201 26.0516 24.4625 25.5917C24.3049 25.1318 23.9754 24.6416 23.4882 24.1211L17.8669 18.2991C17.2078 17.6016 16.7541 16.9194 16.5105 16.2523C16.267 15.5851 16.1428 14.7462 16.1428 13.7304C16.1428 12.2193 16.5869 11.0519 17.4705 10.2281C18.3493 9.40936 19.6865 9 21.4775 9C24.9067 9 26.6213 10.5768 26.6213 13.7354V16.6111H24.3861V13.599C24.3861 12.7853 24.133 12.1586 23.6363 11.7038C23.1348 11.254 22.385 11.0266 21.382 11.0266C20.3791 11.0266 19.6292 11.254 19.1278 11.7038C18.6263 12.1536 18.3779 12.7752 18.3779 13.5636C18.3779 14.352 18.4543 14.9736 18.6024 15.4234C18.7505 15.8732 19.08 16.3483 19.591 16.8436L25.3126 22.6656C25.9287 23.3883 26.3586 24.0806 26.5926 24.7477C26.8266 25.4098 26.946 26.2487 26.946 27.2646ZM32.3763 27.2646V9.50538H34.6114V27.2646C34.6114 28.1237 34.7882 28.7858 35.1368 29.2608C35.4902 29.7359 36.135 29.9734 37.0711 29.9734C38.0072 29.9734 38.8716 29.5893 39.6596 28.8211C40.4477 28.053 40.8441 27.31 40.8441 26.5873V9.50538H43.0792V31.4896H42.124L41.293 29.3265C40.825 30.1402 40.2232 30.7871 39.4877 31.2722C38.7522 31.7574 37.9498 32 37.0758 32C33.9428 32 32.3763 30.4232 32.3763 27.2646ZM49.479 31.4896V9.50538H50.439L51.2366 11.7038C52.2587 9.89958 53.6771 9 55.4872 9C58.6202 9 60.1868 10.5768 60.1868 13.7354V31.4896H57.9516V13.7354C57.9516 12.8813 57.7749 12.2142 57.4263 11.7392C57.0728 11.2641 56.4281 11.0266 55.492 11.0266C54.5559 11.0266 53.6914 11.4107 52.9034 12.1789C52.1154 12.947 51.719 13.69 51.719 14.4127V31.4896H49.479ZM71.7207 31.4896H69.4856V25.2683C66.5866 24.9297 65.1394 23.3731 65.1394 20.5985V9.50538H67.3746V20.5985C67.3746 22.4028 68.4396 23.3024 70.5697 23.3024C72.6998 23.3024 73.7648 22.4028 73.7648 20.5985V9.50538H76V20.5985C76 23.3731 74.572 24.9297 71.716 25.2683V31.4896H71.7207Z" fill="#3B1C13"/>
<g clip-path="url(#clip1_963_3)">
<path d="M131.4 33.6569C131.801 33.1213 132.002 32.5021 132.002 31.7992C132.002 30.9958 131.701 30.3096 131.132 29.7238C130.58 29.1548 129.877 28.8535 129.057 28.8535H126.163C125.761 28.8535 125.477 29.1381 125.477 29.5397V38.8619C125.477 39.2636 125.761 39.5481 126.163 39.5481H129.392C130.228 39.5481 130.964 39.2469 131.567 38.6443C132.169 38.0418 132.487 37.3054 132.487 36.4686V36.0502C132.487 35.4477 132.32 34.8619 131.985 34.3431C131.818 34.092 131.617 33.8577 131.4 33.6569ZM129.676 32.569C129.492 32.7531 129.241 32.8535 128.923 32.8535H127.551V30.9121H129.074C129.342 30.9121 129.526 30.9791 129.71 31.1632C129.894 31.3473 129.977 31.5314 129.977 31.7992C129.961 32.1171 129.877 32.3515 129.676 32.569ZM127.535 34.8954H129.258C129.576 34.8954 129.843 35.0125 130.078 35.2301C130.312 35.4644 130.429 35.7489 130.429 36.0669V36.4853C130.429 36.7531 130.329 36.9874 130.128 37.205C129.927 37.4058 129.693 37.5063 129.392 37.5063H127.535V34.8954Z" fill="#3B1C13"/>
<path d="M137.791 28.7197C136.804 28.7197 135.934 29.0711 135.231 29.7741C134.528 30.477 134.177 31.3305 134.177 32.3347V36.1339C134.177 37.1213 134.528 37.9916 135.231 38.6946C135.934 39.3975 136.787 39.749 137.791 39.749C138.795 39.749 139.648 39.3975 140.351 38.6946C141.053 37.9916 141.405 37.1381 141.405 36.1339V32.3347C141.405 31.3473 141.053 30.477 140.351 29.7741C139.648 29.0711 138.795 28.7197 137.791 28.7197ZM136.235 32.318C136.235 31.8828 136.385 31.5146 136.703 31.2134C137.004 30.9121 137.372 30.7615 137.807 30.7615C138.243 30.7615 138.611 30.9121 138.912 31.2134C139.23 31.5314 139.38 31.8828 139.38 32.318V36.1172C139.38 36.569 139.23 36.9038 138.912 37.2218C138.594 37.5397 138.243 37.6904 137.807 37.6904C137.372 37.6904 137.021 37.5397 136.703 37.2218C136.385 36.9205 136.251 36.569 136.251 36.1339L136.235 32.318Z" fill="#3B1C13"/>
<path d="M155.894 28.8535H153.585C153.184 28.8535 152.899 29.1381 152.899 29.5397V38.8619C152.899 39.2636 153.184 39.5481 153.585 39.5481H156.229C157.199 39.5481 158.036 39.1966 158.722 38.5105C159.408 37.8243 159.759 36.9874 159.759 36.0167V32.6862C159.759 31.6318 159.375 30.7113 158.622 29.9581C157.869 29.2385 156.965 28.8535 155.894 28.8535ZM156.246 37.5063H154.957V30.9121H155.894C156.396 30.9121 156.815 31.0795 157.166 31.4477C157.534 31.8159 157.701 32.2343 157.701 32.7197V36.0335C157.701 36.4519 157.568 36.7699 157.266 37.0711C156.982 37.3556 156.647 37.5063 156.246 37.5063Z" fill="#3B1C13"/>
<path d="M167.389 37.5063H163.992V34.8787H166.82C167.205 34.8787 167.489 34.5774 167.489 34.1925V33.523C167.489 33.1213 167.205 32.8368 166.82 32.8368H163.992V30.9121H167.305C167.69 30.9121 167.991 30.6109 167.991 30.2259V29.5565C167.991 29.1548 167.707 28.8703 167.305 28.8703H162.637C162.236 28.8703 161.951 29.1548 161.951 29.5565V38.8787C161.951 39.2803 162.236 39.5649 162.637 39.5649H167.389C167.79 39.5649 168.075 39.2803 168.075 38.8787V38.2092C168.075 37.7908 167.79 37.5063 167.389 37.5063Z" fill="#3B1C13"/>
<path d="M175.035 29.3389C174.935 29.0376 174.684 28.8535 174.383 28.8535H173.145C172.843 28.8535 172.592 29.0376 172.492 29.3389L169.664 38.5774C169.631 38.6611 169.614 38.7448 169.614 38.8452C169.614 39.2469 169.899 39.5314 170.3 39.5314H171.003C171.321 39.5314 171.589 39.3305 171.656 39.046L172.492 36.3347H175.035L175.872 39.0628L175.889 39.0962C176.006 39.364 176.24 39.5314 176.541 39.5314H177.244C177.629 39.5314 177.93 39.2301 177.93 38.8452C177.93 38.7448 177.913 38.6611 177.88 38.5941L175.035 29.3389ZM174.533 34.2929H173.011L173.764 31.7322L174.533 34.2929Z" fill="#3B1C13"/>
<path d="M185.56 28.8535H184.89C184.489 28.8535 184.204 29.1381 184.204 29.5397V36.3347C184.204 36.7197 184.087 37.0209 183.82 37.272C183.552 37.5397 183.251 37.6736 182.883 37.6736C182.515 37.6736 182.213 37.5397 181.929 37.272C181.678 37.0209 181.544 36.7029 181.544 36.3347V29.5397C181.544 29.1381 181.26 28.8535 180.858 28.8535H180.189C179.787 28.8535 179.503 29.1381 179.503 29.5397V36.3347C179.503 37.272 179.838 38.0753 180.49 38.728C181.143 39.3807 181.962 39.7155 182.883 39.7155C183.82 39.7155 184.623 39.3807 185.275 38.7113C185.928 38.0418 186.246 37.2385 186.246 36.318V29.523C186.246 29.1381 185.961 28.8535 185.56 28.8535Z" fill="#3B1C13"/>
<path d="M192.654 34.1757L195.047 29.8075L195.097 29.6904C195.164 29.4059 195.063 29.205 194.98 29.0879C194.913 28.9875 194.729 28.8368 194.444 28.8368H193.758C193.474 28.8368 193.24 28.9875 193.139 29.2218L191.55 32.1339L189.96 29.2385C189.86 28.9874 189.626 28.8368 189.341 28.8368H188.655C188.354 28.8368 188.187 28.9875 188.12 29.0879C188.036 29.205 187.936 29.4059 188.003 29.7071L188.053 29.8243L190.429 34.1757L188.053 38.5105L188.02 38.5941C187.919 38.9121 188.036 39.1297 188.103 39.2301C188.17 39.3305 188.354 39.4979 188.655 39.4979H189.358C189.626 39.4979 189.86 39.3473 189.977 39.0962L191.55 36.2176L193.106 39.0795C193.223 39.3305 193.457 39.4979 193.725 39.4979H194.428C194.746 39.4979 194.913 39.3305 194.98 39.2301C195.063 39.1297 195.164 38.9121 195.063 38.5774L192.654 34.1757Z" fill="#3B1C13"/>
<path d="M150.657 38.5942L148.8 35.046C149.034 34.9121 149.252 34.7448 149.452 34.5439C150.038 33.9582 150.339 33.2385 150.339 32.4184V31.8829C150.339 31.046 150.038 30.3264 149.452 29.7406C148.867 29.1548 148.164 28.8703 147.328 28.8703H144.316C143.914 28.8703 143.63 29.1548 143.63 29.5565V38.8787C143.63 39.2803 143.914 39.5649 144.316 39.5649H144.985C145.37 39.5649 145.671 39.2636 145.671 38.8787V35.431H146.759L148.683 39.113C148.8 39.3808 149.034 39.5314 149.302 39.5314H150.005C150.322 39.5314 150.49 39.364 150.557 39.2636C150.64 39.1632 150.741 38.9456 150.64 38.6276C150.657 38.6109 150.657 38.6109 150.657 38.5942ZM148.281 31.8829V32.4184C148.281 32.6862 148.198 32.887 147.997 33.0879C147.796 33.2887 147.595 33.3724 147.328 33.3724H145.688V30.9121H147.328C147.595 30.9121 147.813 30.9958 147.997 31.1799C148.198 31.3975 148.281 31.5983 148.281 31.8829Z" fill="#3B1C13"/>
<path d="M118.516 33.7238H118.299C118.249 33.7238 118.232 33.6904 118.232 33.6569V33.59C118.232 33.5397 118.198 33.523 118.165 33.523C118.148 33.523 118.131 33.523 118.131 33.5397C117.881 33.7406 117.613 33.8243 117.328 33.8243C116.81 33.8243 116.408 33.5565 116.107 33.0209C116.074 32.954 116.04 32.8703 116.04 32.7866V31.5314C116.04 31.0293 116.291 30.6443 116.793 30.3431C116.81 30.3264 116.826 30.3264 116.843 30.3264C117.278 30.2092 117.68 30.2427 117.998 30.4602C118.014 30.4602 118.031 30.477 118.048 30.477C118.098 30.477 118.115 30.4602 118.115 30.41V28.954C118.115 28.9038 118.148 28.887 118.182 28.887H118.533C118.583 28.887 118.6 28.9038 118.6 28.954V33.6569C118.583 33.7071 118.566 33.7238 118.516 33.7238ZM118.081 31.5146C118.081 31.2971 118.014 31.113 117.847 30.9456C117.68 30.7782 117.496 30.7113 117.278 30.7113C117.061 30.7113 116.86 30.7782 116.709 30.9456C116.559 31.0962 116.475 31.2803 116.475 31.5146V32.5356C116.475 32.7531 116.559 32.9372 116.709 33.1046C116.86 33.2552 117.061 33.3389 117.278 33.3389C117.496 33.3389 117.68 33.2552 117.847 33.1046C118.014 32.9372 118.081 32.7531 118.081 32.5356V31.5146Z" fill="#3B1C13"/>
<path d="M121.796 32.251H119.972C119.922 32.251 119.905 32.2845 119.905 32.318V32.5188C119.905 32.7531 119.989 32.9372 120.139 33.0878C120.307 33.2552 120.491 33.3222 120.708 33.3222C120.993 33.3222 121.244 33.2385 121.478 33.0878C121.511 33.0544 121.545 33.0711 121.578 33.1046L121.779 33.3891C121.812 33.4226 121.796 33.456 121.762 33.4895C121.377 33.774 120.909 33.8745 120.39 33.7908C120.307 33.774 120.24 33.7573 120.173 33.7071C119.687 33.4058 119.437 33.0209 119.437 32.5188V31.1799C119.437 31.113 119.453 31.046 119.487 30.9958C119.771 30.4937 120.173 30.2259 120.658 30.2259C120.993 30.2259 121.294 30.3431 121.528 30.5941C121.762 30.8452 121.879 31.1129 121.879 31.4477V32.1673C121.863 32.2176 121.846 32.251 121.796 32.251ZM121.377 31.4644C121.377 31.2636 121.31 31.0962 121.16 30.9456C121.009 30.795 120.842 30.728 120.641 30.728C120.44 30.728 120.273 30.795 120.123 30.9456C119.972 31.0962 119.905 31.2636 119.905 31.4644V31.6987C119.905 31.7489 119.938 31.7657 119.972 31.7657H121.294C121.344 31.7657 121.361 31.7322 121.361 31.6987V31.4644H121.377Z" fill="#3B1C13"/>
<path d="M143.196 18.8954V9.841C143.196 9.60669 143.045 9.48953 142.777 9.48953H140.535C140.234 9.48953 140.117 9.35564 140.117 9.10459V7.3138C140.117 7.07949 140.234 6.96233 140.535 6.96233H142.777C143.045 6.96233 143.196 6.82844 143.196 6.5774V2.27614C143.196 2.04183 143.346 1.8912 143.614 1.8912H145.588C145.856 1.8912 146.007 2.0251 146.007 2.27614V6.59413C146.007 6.82844 146.157 6.97907 146.425 6.97907H152.331C152.632 6.97907 152.749 7.07949 152.749 7.33054V9.13807C152.749 9.37238 152.632 9.523 152.331 9.523H146.425C146.157 9.523 146.007 9.62342 146.007 9.87447V18.9289" fill="#009DE0"/>
<path d="M146.023 14.4435L146.039 19.3808C146.006 20.6025 146.173 21.6234 146.508 22.4268C146.843 23.2301 147.679 23.6318 148.984 23.6318C149.486 23.6318 150.105 23.5314 150.841 23.3305C151.578 23.1297 152.431 22.8284 153.385 22.4268C153.418 22.5272 153.435 22.6109 153.435 22.6778C153.435 22.728 153.452 22.795 153.468 22.8619C152.933 23.3808 151.962 23.8996 150.54 24.4017C149.118 24.9038 147.846 25.1715 146.692 25.1715C145.705 25.1715 144.852 24.8703 144.149 24.2678C143.446 23.6653 143.095 22.6109 143.095 21.1213V19.046L143.212 15.8326" fill="#3B1C13"/>
<path d="M124.272 13.3222V19.0795C124.272 20.1004 124.657 20.9707 125.46 21.7071C126.263 22.4435 127.183 22.795 128.338 22.795C129.459 22.795 130.412 22.4435 131.182 21.7071C131.985 20.9707 132.403 20.1004 132.403 19.0795V7.36401C132.403 7.11296 132.52 7.01254 132.788 7.01254H134.779C135.047 7.01254 135.198 7.11296 135.198 7.36401V19.0795C135.198 20.8033 134.512 22.2761 133.156 23.4979C131.801 24.7197 130.195 25.3556 128.321 25.3556C126.447 25.3556 124.791 24.7197 123.452 23.4979C122.113 22.2761 121.461 20.8033 121.461 19.0795V13.3222H124.272Z" fill="#3B1C13"/>
<path d="M124.272 7.46443C124.272 7.06275 123.954 6.81171 123.686 6.81171C123.285 6.81171 122.097 6.99581 121.461 6.99581C119.52 6.99581 119.319 6.92886 118.918 6.92886C118.6 6.92886 118.315 7.14643 118.315 7.54811C118.315 7.94978 118.6 8.20083 118.918 8.20083C119.319 8.20083 119.52 8.0502 121.461 8.0502V13.3222H124.272V7.46443Z" fill="#009DE0"/>
<path d="M112.526 5.32218C111.071 5.32218 110 3.86611 110 2.5272C110 1.25523 111.255 0 112.526 0C113.882 0 115.27 1.12134 115.27 2.5272C115.27 4.10042 114.099 5.32218 112.526 5.32218Z" fill="#009DE0"/>
<path d="M114.718 12.6527V24.5021C114.718 24.7531 114.584 24.887 114.333 24.887H112.543C112.259 24.887 112.158 24.7531 112.158 24.5021V14.3598L114.718 12.6527Z" fill="#3B1C13"/>
<path d="M114.719 12.6527V6.92886H110.218V9.23849H112.159V14.3598L114.719 12.6527Z" fill="#009DE0"/>
</g>
</g>
<defs>
<clipPath id="clip0_963_3">
<rect width="188" height="40" fill="white"/>
</clipPath>
<clipPath id="clip1_963_3">
<rect width="86" height="40" fill="white" transform="translate(110)"/>
</clipPath>
</defs>
</svg>
