<svg width="188" height="40" viewBox="0 0 188 40" fill="none" xmlns="http://www.w3.org/2000/svg">
<g clip-path="url(#clip0_968_73)">
<path d="M83.6001 39.0999C83.5001 39.0999 83.4001 39.0999 83.3001 39.0999C83.0001 38.8999 82.9001 38.5999 83.1001 38.2999L104.9 0.59995C105.1 0.29995 105.4 0.19995 105.7 0.39995C106 0.59995 106.1 0.89995 105.9 1.19995L84.1001 38.9C84.0001 39.1 83.8001 39.2 83.6001 39.2" fill="#3B1C13"/>
<path d="M10.8653 13.7354V27.2646C10.8653 28.7757 10.4116 29.9431 9.50896 30.7669C8.60152 31.5906 7.24992 32 5.44938 32C3.64884 32 2.29247 31.5906 1.37548 30.7669C0.458493 29.9431 0 28.7757 0 27.2646V13.7354C0 12.2243 0.453717 11.0569 1.35638 10.2331C2.26381 9.40936 3.61541 9 5.41595 9C7.21649 9 8.57286 9.40936 9.48985 10.2331C10.4068 11.0569 10.8653 12.2243 10.8653 13.7354ZM8.63018 27.2646V13.7354C8.63018 11.9312 7.56514 11.0316 5.43505 11.0316C3.30497 11.0316 2.23993 11.9312 2.23993 13.7354V27.2646C2.23993 29.0688 3.30497 29.9684 5.43505 29.9684C7.56514 29.9684 8.63018 29.0688 8.63018 27.2646ZM26.946 27.2646C26.946 30.4232 25.1455 32 21.5444 32C17.9433 32 16.1428 30.4232 16.1428 27.2646V24.3889H18.3779V27.401C18.3779 28.2147 18.6454 28.8464 19.1755 29.2962C19.7056 29.746 20.4985 29.9734 21.5396 29.9734C22.5856 29.9734 23.3736 29.746 23.9037 29.2962C24.4339 28.8464 24.7013 28.2298 24.7013 27.4516C24.7013 26.6733 24.6201 26.0516 24.4625 25.5917C24.3049 25.1318 23.9754 24.6416 23.4882 24.1211L17.8669 18.2991C17.2078 17.6016 16.7541 16.9194 16.5105 16.2523C16.267 15.5851 16.1428 14.7462 16.1428 13.7304C16.1428 12.2193 16.5869 11.0519 17.4705 10.2281C18.3493 9.40936 19.6865 9 21.4775 9C24.9067 9 26.6213 10.5768 26.6213 13.7354V16.6111H24.3861V13.599C24.3861 12.7853 24.133 12.1586 23.6363 11.7038C23.1348 11.254 22.385 11.0266 21.382 11.0266C20.3791 11.0266 19.6292 11.254 19.1278 11.7038C18.6263 12.1536 18.3779 12.7752 18.3779 13.5636C18.3779 14.352 18.4543 14.9736 18.6024 15.4234C18.7505 15.8732 19.08 16.3483 19.591 16.8436L25.3126 22.6656C25.9287 23.3883 26.3586 24.0806 26.5926 24.7477C26.8266 25.4098 26.946 26.2487 26.946 27.2646ZM32.3763 27.2646V9.50538H34.6114V27.2646C34.6114 28.1237 34.7882 28.7858 35.1368 29.2608C35.4902 29.7359 36.135 29.9734 37.0711 29.9734C38.0072 29.9734 38.8716 29.5893 39.6596 28.8211C40.4477 28.053 40.8441 27.31 40.8441 26.5873V9.50538H43.0792V31.4896H42.124L41.293 29.3265C40.825 30.1402 40.2232 30.7871 39.4877 31.2722C38.7522 31.7574 37.9498 32 37.0758 32C33.9428 32 32.3763 30.4232 32.3763 27.2646ZM49.479 31.4896V9.50538H50.439L51.2366 11.7038C52.2587 9.89958 53.6771 9 55.4872 9C58.6202 9 60.1868 10.5768 60.1868 13.7354V31.4896H57.9516V13.7354C57.9516 12.8813 57.7749 12.2142 57.4263 11.7392C57.0728 11.2641 56.4281 11.0266 55.492 11.0266C54.5559 11.0266 53.6914 11.4107 52.9034 12.1789C52.1154 12.947 51.719 13.69 51.719 14.4127V31.4896H49.479ZM71.7207 31.4896H69.4856V25.2683C66.5866 24.9297 65.1394 23.3731 65.1394 20.5985V9.50538H67.3746V20.5985C67.3746 22.4028 68.4396 23.3024 70.5697 23.3024C72.6998 23.3024 73.7648 22.4028 73.7648 20.5985V9.50538H76V20.5985C76 23.3731 74.572 24.9297 71.716 25.2683V31.4896H71.7207Z" fill="#3B1C13"/>
<g clip-path="url(#clip1_968_73)">
<path d="M133.164 31.6084C133.505 31.1531 133.676 30.6268 133.676 30.0293C133.676 29.3464 133.42 28.7632 132.937 28.2653C132.468 27.7816 131.872 27.5255 131.176 27.5255H128.719C128.378 27.5255 128.137 27.7674 128.137 28.1088V36.0326C128.137 36.3741 128.378 36.6159 128.719 36.6159H131.46C132.17 36.6159 132.795 36.3598 133.306 35.8477C133.818 35.3356 134.087 34.7096 134.087 33.9983V33.6427C134.087 33.1305 133.945 32.6326 133.661 32.1916C133.519 31.9782 133.349 31.7791 133.164 31.6084ZM131.702 30.6837C131.545 30.8402 131.332 30.9255 131.062 30.9255H129.898V29.2753H131.19C131.417 29.2753 131.574 29.3322 131.73 29.4887C131.886 29.6452 131.957 29.8017 131.957 30.0293C131.943 30.2996 131.872 30.4987 131.702 30.6837ZM129.884 32.6611H131.346C131.616 32.6611 131.844 32.7607 132.042 32.9456C132.241 33.1448 132.341 33.3866 132.341 33.6569V34.0125C132.341 34.2402 132.255 34.4393 132.085 34.6243C131.915 34.795 131.716 34.8803 131.46 34.8803H129.884V32.6611Z" fill="#3B1C13"/>
<path d="M138.59 27.4117C137.752 27.4117 137.014 27.7105 136.417 28.3079C135.821 28.9054 135.522 29.631 135.522 30.4845V33.7138C135.522 34.5531 135.821 35.2929 136.417 35.8904C137.014 36.4879 137.738 36.7866 138.59 36.7866C139.442 36.7866 140.167 36.4879 140.763 35.8904C141.36 35.2929 141.658 34.5674 141.658 33.7138V30.4845C141.658 29.6452 141.36 28.9054 140.763 28.3079C140.167 27.7105 139.442 27.4117 138.59 27.4117ZM137.269 30.4703C137.269 30.1004 137.397 29.7874 137.667 29.5314C137.923 29.2753 138.235 29.1473 138.604 29.1473C138.974 29.1473 139.286 29.2753 139.542 29.5314C139.812 29.8017 139.939 30.1004 139.939 30.4703V33.6996C139.939 34.0837 139.812 34.3682 139.542 34.6385C139.272 34.9088 138.974 35.0368 138.604 35.0368C138.235 35.0368 137.937 34.9088 137.667 34.6385C137.397 34.3824 137.284 34.0837 137.284 33.7138L137.269 30.4703Z" fill="#3B1C13"/>
<path d="M153.957 27.5255H151.997C151.656 27.5255 151.415 27.7674 151.415 28.1088V36.0326C151.415 36.3741 151.656 36.6159 151.997 36.6159H154.241C155.065 36.6159 155.775 36.3171 156.357 35.7339C156.94 35.1506 157.238 34.4393 157.238 33.6142V30.7833C157.238 29.887 156.911 29.1046 156.272 28.4644C155.633 27.8527 154.866 27.5255 153.957 27.5255ZM154.256 34.8803H153.162V29.2753H153.957C154.383 29.2753 154.738 29.4176 155.037 29.7305C155.349 30.0435 155.491 30.3992 155.491 30.8117V33.6284C155.491 33.9841 155.377 34.2544 155.122 34.5105C154.88 34.7523 154.596 34.8803 154.256 34.8803Z" fill="#3B1C13"/>
<path d="M163.714 34.8803H160.831V32.6469H163.232C163.558 32.6469 163.8 32.3908 163.8 32.0636V31.4946C163.8 31.1532 163.558 30.9113 163.232 30.9113H160.831V29.2753H163.643C163.97 29.2753 164.226 29.0193 164.226 28.6921V28.123C164.226 27.7816 163.984 27.5398 163.643 27.5398H159.681C159.34 27.5398 159.099 27.7816 159.099 28.123V36.0469C159.099 36.3883 159.34 36.6301 159.681 36.6301H163.714C164.055 36.6301 164.297 36.3883 164.297 36.0469V35.4778C164.297 35.1222 164.055 34.8803 163.714 34.8803Z" fill="#3B1C13"/>
<path d="M170.204 27.9381C170.119 27.682 169.906 27.5255 169.65 27.5255H168.599C168.344 27.5255 168.131 27.682 168.045 27.9381L165.645 35.7908C165.617 35.8619 165.603 35.933 165.603 36.0184C165.603 36.3598 165.844 36.6017 166.185 36.6017H166.781C167.051 36.6017 167.278 36.431 167.335 36.1891L168.045 33.8845H170.204L170.914 36.2033L170.928 36.2318C171.028 36.4594 171.227 36.6017 171.482 36.6017H172.079C172.405 36.6017 172.661 36.3456 172.661 36.0184C172.661 35.933 172.647 35.8619 172.618 35.805L170.204 27.9381ZM169.778 32.1489H168.486L169.125 29.9724L169.778 32.1489Z" fill="#3B1C13"/>
<path d="M179.137 27.5255H178.569C178.228 27.5255 177.987 27.7674 177.987 28.1088V33.8845C177.987 34.2117 177.888 34.4678 177.66 34.6812C177.433 34.9088 177.177 35.0226 176.865 35.0226C176.553 35.0226 176.297 34.9088 176.055 34.6812C175.842 34.4678 175.729 34.1975 175.729 33.8845V28.1088C175.729 27.7674 175.487 27.5255 175.146 27.5255H174.578C174.238 27.5255 173.996 27.7674 173.996 28.1088V33.8845C173.996 34.6812 174.28 35.364 174.834 35.9188C175.388 36.4736 176.084 36.7582 176.865 36.7582C177.66 36.7582 178.342 36.4736 178.896 35.9046C179.45 35.3356 179.72 34.6527 179.72 33.8703V28.0946C179.72 27.7674 179.478 27.5255 179.137 27.5255Z" fill="#3B1C13"/>
<path d="M185.16 32.0494L187.191 28.3364L187.233 28.2368C187.29 27.995 187.205 27.8243 187.134 27.7247C187.077 27.6393 186.921 27.5113 186.679 27.5113H186.097C185.855 27.5113 185.657 27.6393 185.571 27.8385L184.222 30.3138L182.873 27.8527C182.788 27.6393 182.589 27.5113 182.348 27.5113H181.765C181.51 27.5113 181.368 27.6393 181.311 27.7247C181.24 27.8243 181.155 27.995 181.211 28.251L181.254 28.3506L183.271 32.0494L181.254 35.7339L181.226 35.805C181.14 36.0753 181.24 36.2602 181.297 36.3456C181.353 36.431 181.51 36.5732 181.765 36.5732H182.362C182.589 36.5732 182.788 36.4452 182.887 36.2318L184.222 33.7849L185.543 36.2176C185.642 36.431 185.841 36.5732 186.069 36.5732H186.665C186.935 36.5732 187.077 36.431 187.134 36.3456C187.205 36.2602 187.29 36.0753 187.205 35.7908L185.16 32.0494Z" fill="#3B1C13"/>
<path d="M149.512 35.805L147.935 32.7891C148.134 32.6753 148.319 32.5331 148.489 32.3624C148.986 31.8644 149.242 31.2527 149.242 30.5557V30.1004C149.242 29.3891 148.986 28.7774 148.489 28.2795C147.992 27.7816 147.396 27.5398 146.686 27.5398H144.129C143.788 27.5398 143.547 27.7816 143.547 28.123V36.0469C143.547 36.3883 143.788 36.6301 144.129 36.6301H144.697C145.024 36.6301 145.28 36.3741 145.28 36.0469V33.1163H146.203L147.836 36.246C147.935 36.4737 148.134 36.6017 148.361 36.6017H148.958C149.228 36.6017 149.37 36.4594 149.427 36.3741C149.498 36.2887 149.583 36.1038 149.498 35.8335C149.512 35.8193 149.512 35.8193 149.512 35.805ZM147.495 30.1004V30.5557C147.495 30.7833 147.424 30.954 147.254 31.1247C147.083 31.2954 146.913 31.3665 146.686 31.3665H145.294V29.2753H146.686C146.913 29.2753 147.097 29.3465 147.254 29.5029C147.424 29.6879 147.495 29.8586 147.495 30.1004Z" fill="#3B1C13"/>
<path d="M122.229 31.6653H122.044C122.002 31.6653 121.987 31.6368 121.987 31.6084V31.5515C121.987 31.5088 121.959 31.4946 121.931 31.4946C121.916 31.4946 121.902 31.4946 121.902 31.5088C121.689 31.6795 121.462 31.7506 121.221 31.7506C120.78 31.7506 120.439 31.523 120.184 31.0678C120.155 31.0109 120.127 30.9398 120.127 30.8686V29.8017C120.127 29.3749 120.34 29.0477 120.766 28.7916C120.78 28.7774 120.794 28.7774 120.809 28.7774C121.178 28.6778 121.519 28.7063 121.789 28.8912C121.803 28.8912 121.817 28.9055 121.831 28.9055C121.874 28.9055 121.888 28.8912 121.888 28.8485V27.6109C121.888 27.5682 121.916 27.554 121.945 27.554H122.243C122.286 27.554 122.3 27.5682 122.3 27.6109V31.6084C122.286 31.6511 122.272 31.6653 122.229 31.6653ZM121.86 29.7875C121.86 29.6025 121.803 29.446 121.661 29.3038C121.519 29.1615 121.363 29.1046 121.178 29.1046C120.993 29.1046 120.823 29.1615 120.695 29.3038C120.567 29.4318 120.496 29.5883 120.496 29.7875V30.6552C120.496 30.8402 120.567 30.9967 120.695 31.1389C120.823 31.267 120.993 31.3381 121.178 31.3381C121.363 31.3381 121.519 31.267 121.661 31.1389C121.803 30.9967 121.86 30.8402 121.86 30.6552V29.7875Z" fill="#3B1C13"/>
<path d="M125.012 30.4134H123.464C123.422 30.4134 123.407 30.4419 123.407 30.4703V30.641C123.407 30.8402 123.478 30.9967 123.606 31.1247C123.748 31.267 123.905 31.3239 124.089 31.3239C124.331 31.3239 124.544 31.2527 124.742 31.1247C124.771 31.0963 124.799 31.1105 124.828 31.1389L124.998 31.3808C125.026 31.4092 125.012 31.4377 124.984 31.4661C124.657 31.708 124.26 31.7933 123.819 31.7222C123.748 31.708 123.691 31.6937 123.635 31.6511C123.223 31.395 123.01 31.0678 123.01 30.641V29.503C123.01 29.4461 123.024 29.3891 123.052 29.3465C123.294 28.9197 123.635 28.6921 124.047 28.6921C124.331 28.6921 124.586 28.7917 124.785 29.005C124.984 29.2184 125.083 29.4461 125.083 29.7306V30.3423C125.069 30.385 125.055 30.4134 125.012 30.4134ZM124.657 29.7448C124.657 29.5741 124.6 29.4318 124.473 29.3038C124.345 29.1758 124.203 29.1189 124.032 29.1189C123.862 29.1189 123.72 29.1758 123.592 29.3038C123.464 29.4318 123.407 29.5741 123.407 29.7448V29.944C123.407 29.9866 123.436 30.0009 123.464 30.0009H124.586C124.629 30.0009 124.643 29.9724 124.643 29.944V29.7448H124.657Z" fill="#3B1C13"/>
<path d="M143.178 19.0611V11.3649C143.178 11.1657 143.05 11.0661 142.823 11.0661H140.92C140.664 11.0661 140.564 10.9523 140.564 10.7389V9.21675C140.564 9.01759 140.664 8.918 140.92 8.918H142.823C143.05 8.918 143.178 8.8042 143.178 8.59081V4.93474C143.178 4.73558 143.306 4.60754 143.533 4.60754H145.209C145.436 4.60754 145.564 4.72135 145.564 4.93474V8.60503C145.564 8.8042 145.691 8.93223 145.919 8.93223H150.932C151.188 8.93223 151.287 9.01759 151.287 9.23098V10.7674C151.287 10.9665 151.188 11.0946 150.932 11.0946H145.919C145.691 11.0946 145.564 11.1799 145.564 11.3933V19.0896" fill="#009DE0"/>
<path d="M145.577 15.277L145.591 19.4736C145.563 20.5121 145.705 21.3799 145.989 22.0628C146.273 22.7456 146.983 23.087 148.091 23.087C148.517 23.087 149.043 23.0017 149.667 22.831C150.292 22.6602 151.017 22.4042 151.826 22.0628C151.855 22.1481 151.869 22.2192 151.869 22.2761C151.869 22.3188 151.883 22.3757 151.897 22.4326C151.443 22.8736 150.619 23.3146 149.412 23.7414C148.205 24.1682 147.125 24.3958 146.145 24.3958C145.307 24.3958 144.583 24.1397 143.987 23.6276C143.39 23.1155 143.092 22.2192 143.092 20.9531V19.1891L143.191 16.4577" fill="#3B1C13"/>
<path d="M127.115 14.3238V19.2176C127.115 20.0853 127.441 20.8251 128.123 21.451C128.805 22.077 129.586 22.3757 130.566 22.3757C131.517 22.3757 132.327 22.077 132.98 21.451C133.662 20.8251 134.017 20.0853 134.017 19.2176V9.25941C134.017 9.04602 134.116 8.96066 134.343 8.96066H136.034C136.261 8.96066 136.389 9.04602 136.389 9.25941V19.2176C136.389 20.6828 135.806 21.9347 134.656 22.9732C133.506 24.0117 132.142 24.5523 130.551 24.5523C128.961 24.5523 127.555 24.0117 126.419 22.9732C125.282 21.9347 124.729 20.6828 124.729 19.2176V14.3238H127.115Z" fill="#3B1C13"/>
<path d="M127.115 9.34476C127.115 9.00334 126.845 8.78995 126.618 8.78995C126.277 8.78995 125.268 8.94643 124.729 8.94643C123.081 8.94643 122.911 8.88953 122.57 8.88953C122.3 8.88953 122.059 9.07447 122.059 9.41589C122.059 9.75731 122.3 9.9707 122.57 9.9707C122.911 9.9707 123.081 9.84267 124.729 9.84267V14.3238H127.115V9.34476Z" fill="#009DE0"/>
<path d="M117.145 7.52385C115.909 7.52385 115 6.28619 115 5.14812C115 4.06695 116.065 3 117.145 3C118.295 3 119.474 3.95314 119.474 5.14812C119.474 6.48536 118.48 7.52385 117.145 7.52385Z" fill="#009DE0"/>
<path d="M119.005 13.7548V23.8268C119.005 24.0402 118.891 24.154 118.678 24.154H117.159C116.917 24.154 116.832 24.0402 116.832 23.8268V15.2059L119.005 13.7548Z" fill="#3B1C13"/>
<path d="M119.005 13.7548V8.88953H115.185V10.8527H116.832V15.2058L119.005 13.7548Z" fill="#009DE0"/>
</g>
</g>
<defs>
<clipPath id="clip0_968_73">
<rect width="188" height="40" fill="white"/>
</clipPath>
<clipPath id="clip1_968_73">
<rect width="73" height="34" fill="white" transform="translate(115 3)"/>
</clipPath>
</defs>
</svg>
