<svg width="188" height="40" viewBox="0 0 188 40" fill="none" xmlns="http://www.w3.org/2000/svg">
<g clip-path="url(#clip0_962_128)">
<path d="M83.6001 39.0999C83.5001 39.0999 83.4001 39.0999 83.3001 39.0999C83.0001 38.8999 82.9001 38.5999 83.1001 38.2999L104.9 0.59995C105.1 0.29995 105.4 0.19995 105.7 0.39995C106 0.59995 106.1 0.89995 105.9 1.19995L84.1001 38.9C84.0001 39.1 83.8001 39.2 83.6001 39.2" fill="white"/>
<path d="M129.7 32.2994C130.1 31.7994 130.3 31.2994 130.3 30.5994C130.3 29.8994 130 29.1994 129.5 28.6994C129 28.1994 128.4 27.8994 127.6 27.8994H125C124.6 27.8994 124.4 28.1994 124.4 28.4994V36.8994C124.4 37.2994 124.7 37.4994 125 37.4994H127.9C128.7 37.4994 129.3 37.1994 129.9 36.6994C130.4 36.1994 130.7 35.4994 130.7 34.6994V34.2994C130.7 33.6994 130.5 33.1994 130.2 32.6994C130.1 32.4994 129.9 32.1994 129.7 32.0994M128.1 31.2994C127.9 31.4994 127.7 31.5994 127.4 31.5994H126.2V29.7994H127.6C127.8 29.7994 128 29.7994 128.2 29.9994C128.4 30.1994 128.4 30.2994 128.4 30.5994C128.4 30.8994 128.4 31.0994 128.1 31.2994ZM126.2 33.3994H127.8C128.1 33.3994 128.3 33.4994 128.5 33.6994C128.7 33.8994 128.8 34.1994 128.8 34.4994V34.8994C128.8 35.0994 128.8 35.3994 128.5 35.4994C128.3 35.6994 128.1 35.7994 127.8 35.7994H126.1V33.3994H126.2Z" fill="white"/>
<path d="M135.501 27.7998C134.601 27.7998 133.801 28.0998 133.201 28.7998C132.601 29.3998 132.201 30.1998 132.201 31.0998V34.4998C132.201 35.3998 132.501 36.1998 133.201 36.7998C133.801 37.3998 134.601 37.7998 135.501 37.7998C136.401 37.7998 137.201 37.4998 137.801 36.7998C138.401 36.1998 138.801 35.3998 138.801 34.4998V31.0998C138.801 30.1998 138.501 29.3998 137.801 28.7998C137.201 28.1998 136.401 27.7998 135.501 27.7998ZM134.101 31.0998C134.101 30.6998 134.201 30.3998 134.501 30.0998C134.801 29.7998 135.101 29.6998 135.501 29.6998C135.901 29.6998 136.201 29.7998 136.501 30.0998C136.801 30.3998 136.901 30.6998 136.901 31.0998V34.4998C136.901 34.8998 136.801 35.1998 136.501 35.4998C136.201 35.7998 135.901 35.8998 135.501 35.8998C135.101 35.8998 134.801 35.7998 134.501 35.4998C134.201 35.1998 134.101 34.8998 134.101 34.4998V31.0998Z" fill="white"/>
<path d="M151.901 27.9994H149.801C149.401 27.9994 149.201 28.2994 149.201 28.5994V36.9994C149.201 37.3994 149.501 37.5994 149.801 37.5994H152.201C153.101 37.5994 153.801 37.2994 154.501 36.6994C155.101 36.0994 155.401 35.2994 155.401 34.3994V31.3994C155.401 30.3994 155.101 29.5994 154.401 28.8994C153.701 28.1994 152.901 27.8994 151.901 27.8994M152.201 35.7994H151.001V29.7994H151.901C152.401 29.7994 152.701 29.9994 153.101 30.2994C153.401 30.5994 153.601 30.9994 153.601 31.4994V34.4994C153.601 34.8994 153.501 35.1994 153.201 35.3994C152.901 35.6994 152.601 35.7994 152.301 35.7994" fill="white"/>
<path d="M162.3 35.7996H159.2V33.3996H161.8C162.1 33.3996 162.4 33.0996 162.4 32.7996V32.1996C162.4 31.7996 162.1 31.5996 161.8 31.5996H159.2V29.8996H162.2C162.6 29.8996 162.8 29.5996 162.8 29.2996V28.6996C162.8 28.2996 162.5 28.0996 162.2 28.0996H158C157.6 28.0996 157.4 28.3996 157.4 28.6996V37.0996C157.4 37.4996 157.7 37.6996 158 37.6996H162.3C162.7 37.6996 162.9 37.3996 162.9 37.0996V36.4996C162.9 36.0996 162.6 35.8996 162.3 35.8996" fill="white"/>
<path d="M169.201 28.4C169.201 28.1 168.901 28 168.601 28H167.501C167.201 28 167.001 28.2 166.901 28.4L164.301 36.8V37C164.301 37.4 164.601 37.6 164.901 37.6H165.501C165.801 37.6 166.001 37.4 166.101 37.2L166.901 34.7H169.201L170.001 37.2C170.001 37.5 170.301 37.6 170.601 37.6H171.201C171.601 37.6 171.801 37.3 171.801 37C171.801 36.7 171.801 36.8 171.801 36.8L169.201 28.4ZM168.801 32.9H167.401L168.101 30.6L168.801 32.9Z" fill="white"/>
<path d="M178.801 28H178.201C177.801 28 177.601 28.3 177.601 28.6V34.8C177.601 35.2 177.501 35.4 177.301 35.7C177.101 35.9 176.801 36.1 176.401 36.1C176.001 36.1 175.801 36 175.501 35.7C175.301 35.5 175.101 35.2 175.101 34.9V28.7C175.101 28.3 174.801 28.1 174.501 28.1H173.901C173.501 28.1 173.301 28.4 173.301 28.7V34.9C173.301 35.7 173.601 36.5 174.201 37.1C174.801 37.7 175.501 38 176.401 38C177.301 38 178.001 37.7 178.601 37.1C179.201 36.5 179.501 35.8 179.501 34.9V28.7C179.501 28.3 179.201 28.1 178.901 28.1" fill="white"/>
<path d="M185.201 32.7994L187.401 28.7994C187.401 28.3994 187.401 28.1994 187.301 28.0994C187.301 28.0994 187.101 27.8994 186.801 27.8994H186.201C185.901 27.8994 185.701 27.9994 185.601 28.2994L184.201 30.8994L182.801 28.2994C182.801 28.0994 182.501 27.8994 182.201 27.8994H181.601C181.301 27.8994 181.201 27.9994 181.101 28.0994C181.101 28.1994 180.901 28.3994 181.001 28.6994C181.001 28.7994 183.201 32.7994 183.201 32.7994L181.001 36.6994C181.001 37.0994 181.001 37.2994 181.001 37.3994C181.001 37.3994 181.201 37.5994 181.501 37.5994H182.101C182.301 37.5994 182.601 37.4994 182.701 37.1994L184.101 34.5994L185.501 37.1994C185.601 37.3994 185.801 37.5994 186.101 37.5994H186.701C187.001 37.5994 187.101 37.3994 187.201 37.3994C187.201 37.3994 187.401 37.0994 187.201 36.7994L185.001 32.7994H185.201Z" fill="white"/>
<path d="M147.101 36.8L145.401 33.6C145.601 33.5 145.801 33.3 146.001 33.1C146.501 32.6 146.801 31.9 146.801 31.2V30.7C146.801 29.9 146.501 29.3 146.001 28.8C145.501 28.3 144.801 28 144.101 28H141.401C141.001 28 140.801 28.3 140.801 28.6V37C140.801 37.4 141.101 37.6 141.401 37.6H142.001C142.401 37.6 142.601 37.3 142.601 37V33.9H143.601L145.301 37.2C145.401 37.4 145.601 37.6 145.901 37.6H146.501C146.801 37.6 146.901 37.4 147.001 37.4C147.001 37.4 147.201 37.1 147.001 36.8M145.001 30.7V31.2C145.001 31.4 145.001 31.6 144.701 31.8C144.501 32 144.301 32.1 144.101 32.1H142.601V29.9H144.101C144.301 29.9 144.501 29.9 144.701 30.1C144.901 30.3 145.001 30.5 145.001 30.7Z" fill="white"/>
<path d="M118.001 32.3998H117.801C117.801 32.2998 117.801 32.2998 117.801 32.2998C117.601 32.4998 117.301 32.5998 117.101 32.5998C116.601 32.5998 116.301 32.3998 116.001 31.8998C115.701 31.3998 116.001 31.7998 116.001 31.6998V30.5998C116.001 30.0998 116.201 29.7998 116.701 29.4998C117.101 29.3998 117.501 29.4998 117.801 29.5998V28.2998H118.101V32.5998M117.601 30.3998C117.601 30.1998 117.601 29.9998 117.401 29.8998C117.301 29.7998 117.101 29.6998 116.901 29.6998C116.701 29.6998 116.501 29.6998 116.401 29.8998C116.301 29.9998 116.201 30.1998 116.201 30.3998V31.2998C116.201 31.4998 116.201 31.6998 116.401 31.7998C116.501 31.8998 116.701 31.9998 116.901 31.9998C117.101 31.9998 117.301 31.9998 117.401 31.7998C117.501 31.6998 117.601 31.4998 117.601 31.2998V30.3998Z" fill="white"/>
<path d="M121 30.9996H119.4V31.1996C119.4 31.3996 119.4 31.5996 119.6 31.6996C119.7 31.7996 119.9 31.8996 120.1 31.8996C120.3 31.8996 120.6 31.8996 120.8 31.6996L121 31.9996C120.7 32.2996 120.2 32.2996 119.8 32.2996C119.4 32.2996 119.7 32.2996 119.6 32.2996C119.2 31.9996 118.9 31.6996 118.9 31.1996V29.9996C118.9 29.9996 118.9 29.8996 118.9 29.7996C119.2 29.2996 119.5 29.0996 120 29.0996C120.5 29.0996 120.6 29.1996 120.8 29.3996C121 29.5996 121.1 29.8996 121.1 30.1996V30.7996M120.6 30.2996C120.6 30.0996 120.6 29.9996 120.4 29.7996C120.3 29.6996 120.1 29.5996 119.9 29.5996C119.7 29.5996 119.6 29.5996 119.4 29.7996C119.3 29.8996 119.2 30.0996 119.2 30.2996V30.4996H120.4V30.2996H120.6Z" fill="white"/>
<path d="M142.4 4V7.8C142.4 8.3 142.8 8.6 143.3 8.6H148.5V9.9H143.3C142.7 9.9 142.4 10.3 142.4 10.7V14.7L140.8 15.6V10.7C140.8 10.3 140.5 9.9 139.9 9.9H138V8.6H139.9C140.4 8.6 140.8 8.3 140.8 7.8V4H142.4ZM142.5 3.5H140.7C140.5 3.5 140.3 3.6 140.3 3.8V7.7C140.3 7.9 140.2 8 139.9 8H137.9C137.6 8 137.5 8 137.5 8.3V9.9C137.5 10.1 137.6 10.2 137.9 10.2H139.9C140.1 10.2 140.3 10.2 140.3 10.5V16.2L142.9 14.7V10.5C142.9 10.3 143 10.2 143.3 10.2H148.6C148.9 10.2 149 10.1 149 9.9V8.3C149 8.1 148.9 8 148.6 8H143.3C143.1 8 142.9 7.9 142.9 7.7V3.8C142.9 3.6 142.8 3.5 142.5 3.5Z" fill="white"/>
<path d="M142.9 14.8994V19.3994C142.9 20.4994 143 21.3994 143.3 22.1994C143.6 22.8994 144.4 23.2994 145.5 23.2994C146.6 23.2994 146.5 23.2994 147.2 22.9994C147.9 22.7994 148.6 22.4994 149.5 22.1994V22.3994C149.5 22.3994 149.5 22.4994 149.5 22.5994C149 23.0994 148.1 23.4994 146.8 23.9994C145.5 24.4994 144.4 24.6994 143.3 24.6994C142.2 24.6994 141.6 24.3994 141 23.8994C140.4 23.3994 140 22.3994 140 21.0994V16.2994C140.1 16.2994 142.7 15.0994 142.7 15.0994L142.9 14.8994Z" fill="white"/>
<path d="M123.201 13.9002V19.1002C123.201 20.0002 123.501 20.8002 124.301 21.5002C125.001 22.2002 125.901 22.5002 126.901 22.5002C127.901 22.5002 128.801 22.2002 129.501 21.5002C130.201 20.8002 130.601 20.0002 130.601 19.1002V8.50019C130.601 8.30019 130.701 8.2002 130.901 8.2002H132.701C132.901 8.2002 133.101 8.20019 133.101 8.50019V19.1002C133.101 20.7002 132.501 22.0002 131.301 23.1002C130.101 24.2002 128.601 24.8002 126.901 24.8002C125.201 24.8002 123.701 24.2002 122.501 23.1002C121.301 22.0002 120.701 20.7002 120.701 19.1002V13.9002H123.201Z" fill="white"/>
<path d="M122.7 8.5V13.3H121.2V9.3V8.8H120.7C119.5 8.8 119 8.8 118.7 8.9C118.7 8.9 118.6 8.9 118.5 8.9C118.5 8.9 118.4 8.6 118.4 8.5C118.5 8.5 118.6 8.5 118.7 8.5C119 8.5 119.5 8.5 120.7 8.5C121.9 8.5 121.5 8.5 122 8.5C122.3 8.5 122.6 8.5 122.7 8.5ZM122.7 8C122.3 8 121.3 8.2 120.7 8.2C118.9 8.2 118.8 8.2 118.4 8.2C118 8.2 117.9 8.4 117.9 8.8C117.9 9.2 118.2 9.7 118.4 9.7C118.6 9.7 118.9 9.6 120.7 9.6V14.1H123.2V8.8C123.2 8.4 122.9 8.2 122.7 8.2V8Z" fill="white"/>
<path d="M112.601 2.2998C113.501 2.2998 114.601 3.0998 114.601 4.0998C114.601 5.0998 113.801 6.0998 112.601 6.0998C111.401 6.0998 110.801 4.9998 110.801 4.0998C110.801 3.1998 111.701 2.2998 112.601 2.2998ZM112.601 1.7998C111.501 1.7998 110.301 2.8998 110.301 4.0998C110.301 5.2998 111.301 6.5998 112.601 6.5998C113.901 6.5998 115.101 5.4998 115.101 4.0998C115.101 2.6998 113.801 1.7998 112.601 1.7998Z" fill="white"/>
<path d="M114.6 13.2998V23.9998C114.6 24.1998 114.5 24.2998 114.3 24.2998H112.7C112.4 24.2998 112.4 24.1998 112.4 23.9998V14.7998L114.7 13.2998H114.6Z" fill="white"/>
<path d="M114.1 8.59961V12.9996L112.8 13.8996V9.6996H111V8.59961H114.1ZM114.6 8.09961H110.5V10.1996H112.3V14.7996L114.6 13.2996V8.09961Z" fill="white"/>
<path d="M10.8653 13.7354V27.2646C10.8653 28.7757 10.4116 29.9431 9.50896 30.7669C8.60152 31.5906 7.24992 32 5.44938 32C3.64884 32 2.29247 31.5906 1.37548 30.7669C0.458493 29.9431 0 28.7757 0 27.2646V13.7354C0 12.2243 0.453717 11.0569 1.35638 10.2331C2.26381 9.40936 3.61541 9 5.41595 9C7.21649 9 8.57286 9.40936 9.48985 10.2331C10.4068 11.0569 10.8653 12.2243 10.8653 13.7354ZM8.63018 27.2646V13.7354C8.63018 11.9312 7.56514 11.0316 5.43505 11.0316C3.30497 11.0316 2.23993 11.9312 2.23993 13.7354V27.2646C2.23993 29.0688 3.30497 29.9684 5.43505 29.9684C7.56514 29.9684 8.63018 29.0688 8.63018 27.2646ZM26.946 27.2646C26.946 30.4232 25.1455 32 21.5444 32C17.9433 32 16.1428 30.4232 16.1428 27.2646V24.3889H18.3779V27.401C18.3779 28.2147 18.6454 28.8464 19.1755 29.2962C19.7056 29.746 20.4985 29.9734 21.5396 29.9734C22.5856 29.9734 23.3736 29.746 23.9037 29.2962C24.4339 28.8464 24.7013 28.2298 24.7013 27.4516C24.7013 26.6733 24.6201 26.0516 24.4625 25.5917C24.3049 25.1318 23.9754 24.6416 23.4882 24.1211L17.8669 18.2991C17.2078 17.6016 16.7541 16.9194 16.5105 16.2523C16.267 15.5851 16.1428 14.7462 16.1428 13.7304C16.1428 12.2193 16.5869 11.0519 17.4705 10.2281C18.3493 9.40936 19.6865 9 21.4775 9C24.9067 9 26.6213 10.5768 26.6213 13.7354V16.6111H24.3861V13.599C24.3861 12.7853 24.133 12.1586 23.6363 11.7038C23.1348 11.254 22.385 11.0266 21.382 11.0266C20.3791 11.0266 19.6292 11.254 19.1278 11.7038C18.6263 12.1536 18.3779 12.7752 18.3779 13.5636C18.3779 14.352 18.4543 14.9736 18.6024 15.4234C18.7505 15.8732 19.08 16.3483 19.591 16.8436L25.3126 22.6656C25.9287 23.3883 26.3586 24.0806 26.5926 24.7477C26.8266 25.4098 26.946 26.2487 26.946 27.2646ZM32.3763 27.2646V9.50538H34.6114V27.2646C34.6114 28.1237 34.7882 28.7858 35.1368 29.2608C35.4902 29.7359 36.135 29.9734 37.0711 29.9734C38.0072 29.9734 38.8716 29.5893 39.6596 28.8211C40.4477 28.053 40.8441 27.31 40.8441 26.5873V9.50538H43.0792V31.4896H42.124L41.293 29.3265C40.825 30.1402 40.2232 30.7871 39.4877 31.2722C38.7522 31.7574 37.9498 32 37.0758 32C33.9428 32 32.3763 30.4232 32.3763 27.2646ZM49.479 31.4896V9.50538H50.439L51.2366 11.7038C52.2587 9.89958 53.6771 9 55.4872 9C58.6202 9 60.1868 10.5768 60.1868 13.7354V31.4896H57.9516V13.7354C57.9516 12.8813 57.7749 12.2142 57.4263 11.7392C57.0728 11.2641 56.4281 11.0266 55.492 11.0266C54.5559 11.0266 53.6914 11.4107 52.9034 12.1789C52.1154 12.947 51.719 13.69 51.719 14.4127V31.4896H49.479ZM71.7207 31.4896H69.4856V25.2683C66.5866 24.9297 65.1394 23.3731 65.1394 20.5985V9.50538H67.3746V20.5985C67.3746 22.4028 68.4396 23.3024 70.5697 23.3024C72.6998 23.3024 73.7648 22.4028 73.7648 20.5985V9.50538H76V20.5985C76 23.3731 74.572 24.9297 71.716 25.2683V31.4896H71.7207Z" fill="white"/>
</g>
<defs>
<clipPath id="clip0_962_128">
<rect width="188" height="40" fill="white"/>
</clipPath>
</defs>
</svg>
